<svg width="143" height="47" viewBox="0 0 143 47" fill="none" xmlns="http://www.w3.org/2000/svg">
<rect width="143" height="46.129" rx="23.0645" fill="white"/>
<path d="M50.8262 30.1488L46.4199 15.2082H50.943L52.9856 24.4002H53.1024L55.5244 15.2082H59.0844L61.5065 24.4294H61.6232L63.6658 15.2082H68.1889L63.7826 30.1488H59.9015L57.3628 21.8031H57.246L54.7073 30.1488H50.8262Z" fill="#1E293B"/>
<path d="M71.3787 30.3239C70.6638 30.3239 70.0315 30.2072 69.482 29.9737C68.9373 29.7354 68.5093 29.3755 68.198 28.894C67.8867 28.4126 67.7311 27.7998 67.7311 27.0556C67.7311 26.4428 67.8357 25.92 68.0448 25.4872C68.2539 25.0495 68.5457 24.692 68.9202 24.4148C69.2947 24.1375 69.73 23.926 70.2261 23.7801C70.727 23.6342 71.2669 23.5393 71.8456 23.4956C72.473 23.4469 72.9764 23.3886 73.3557 23.3205C73.74 23.2475 74.0172 23.1478 74.1874 23.0214C74.3576 22.8901 74.4427 22.7174 74.4427 22.5034V22.4742C74.4427 22.1824 74.3309 21.9587 74.1071 21.8031C73.8834 21.6474 73.5965 21.5696 73.2463 21.5696C72.8621 21.5696 72.5484 21.6547 72.3052 21.825C72.0669 21.9903 71.9234 22.2457 71.8748 22.591H68.1688C68.2175 21.9101 68.4339 21.2827 68.8181 20.7088C69.2072 20.13 69.7738 19.668 70.5179 19.3227C71.262 18.9725 72.1909 18.7974 73.3047 18.7974C74.1071 18.7974 74.8269 18.8923 75.4641 19.082C76.1012 19.2668 76.6435 19.527 77.0909 19.8625C77.5383 20.1933 77.8788 20.5823 78.1122 21.0298C78.3505 21.4724 78.4697 21.9538 78.4697 22.4742V30.1488H74.7054V28.573H74.6178C74.3941 28.9913 74.1217 29.3293 73.8007 29.5871C73.4846 29.8449 73.1223 30.0321 72.7138 30.1488C72.3101 30.2655 71.8651 30.3239 71.3787 30.3239ZM72.6919 27.7852C72.9983 27.7852 73.2852 27.7219 73.5527 27.5955C73.8251 27.469 74.0464 27.2867 74.2166 27.0483C74.3868 26.81 74.4719 26.5207 74.4719 26.1802V25.2464C74.3649 25.2902 74.2506 25.3315 74.129 25.3704C74.0123 25.4094 73.8859 25.4458 73.7497 25.4799C73.6184 25.5139 73.4773 25.5455 73.3266 25.5747C73.1807 25.6039 73.0274 25.6306 72.867 25.655C72.5557 25.7036 72.3004 25.7838 72.101 25.8957C71.9064 26.0027 71.7605 26.1364 71.6632 26.2969C71.5708 26.4526 71.5246 26.6277 71.5246 26.8222C71.5246 27.1335 71.6341 27.3718 71.8529 27.5371C72.0718 27.7025 72.3514 27.7852 72.6919 27.7852Z" fill="#1E293B"/>
<path d="M91.2856 18.9433L87.5212 30.1488H82.8523L79.088 18.9433H83.3192L85.1284 26.3553H85.2451L87.0544 18.9433H91.2856Z" fill="#1E293B"/>
<path d="M97.4592 30.3531C96.2628 30.3531 95.2317 30.1245 94.366 29.6673C93.5052 29.2053 92.8413 28.5439 92.3744 27.683C91.9124 26.8173 91.6814 25.7814 91.6814 24.5753C91.6814 23.4178 91.9148 22.4061 92.3817 21.5404C92.8486 20.6747 93.5076 20.0012 94.3587 19.5197C95.2098 19.0382 96.2141 18.7974 97.3716 18.7974C98.2179 18.7974 98.9839 18.9288 99.6696 19.1914C100.355 19.454 100.941 19.8358 101.428 20.3367C101.914 20.8328 102.289 21.4359 102.551 22.146C102.814 22.856 102.945 23.6561 102.945 24.5461V25.4799H92.9361V23.2621H99.2392C99.2343 22.9411 99.1517 22.659 98.9912 22.4159C98.8355 22.1678 98.624 21.9757 98.3565 21.8396C98.0939 21.6985 97.7948 21.628 97.4592 21.628C97.1333 21.628 96.8342 21.6985 96.5619 21.8396C96.2895 21.9757 96.0707 22.1654 95.9053 22.4086C95.7448 22.6518 95.6597 22.9363 95.65 23.2621V25.655C95.65 26.0149 95.7253 26.3358 95.8761 26.6179C96.0269 26.9 96.2433 27.1213 96.5254 27.2818C96.8075 27.4423 97.1479 27.5225 97.5467 27.5225C97.8239 27.5225 98.0768 27.4836 98.3054 27.4058C98.5389 27.328 98.7383 27.2161 98.9036 27.0702C99.069 26.9195 99.1906 26.7395 99.2684 26.5304H102.945C102.819 27.3085 102.52 27.9846 102.048 28.5585C101.576 29.1275 100.951 29.5701 100.173 29.8862C99.3997 30.1975 98.4951 30.3531 97.4592 30.3531Z" fill="#1E293B"/>
<path d="M104.588 30.1488V18.9433H108.499V21.0736H108.615C108.82 20.2857 109.143 19.7093 109.586 19.3446C110.033 18.9798 110.556 18.7974 111.154 18.7974C111.329 18.7974 111.502 18.812 111.672 18.8412C111.847 18.8655 112.015 18.902 112.175 18.9506V22.3867C111.976 22.3186 111.73 22.2675 111.439 22.2335C111.147 22.1995 110.896 22.1824 110.687 22.1824C110.293 22.1824 109.938 22.2724 109.622 22.4524C109.311 22.6274 109.065 22.8755 108.885 23.1965C108.705 23.5126 108.615 23.8846 108.615 24.3126V30.1488H104.588Z" fill="#1E293B"/>
<path d="M113.496 30.1488V18.9433H117.523V30.1488H113.496ZM115.509 17.7761C114.965 17.7761 114.498 17.5962 114.109 17.2363C113.72 16.8764 113.525 16.4435 113.525 15.9377C113.525 15.4319 113.72 14.9991 114.109 14.6392C114.498 14.2793 114.965 14.0993 115.509 14.0993C116.059 14.0993 116.526 14.2793 116.91 14.6392C117.299 14.9991 117.494 15.4319 117.494 15.9377C117.494 16.4435 117.299 16.8764 116.91 17.2363C116.526 17.5962 116.059 17.7761 115.509 17.7761Z" fill="#1E293B"/>
<path d="M124.973 30.3531C123.757 30.3531 122.716 30.1123 121.851 29.6309C120.985 29.1445 120.321 28.4685 119.859 27.6028C119.397 26.7322 119.166 25.723 119.166 24.5753C119.166 23.4275 119.397 22.4207 119.859 21.555C120.321 20.6845 120.985 20.0084 121.851 19.527C122.716 19.0406 123.757 18.7974 124.973 18.7974C126.189 18.7974 127.23 19.0406 128.095 19.527C128.961 20.0084 129.625 20.6845 130.087 21.555C130.549 22.4207 130.78 23.4275 130.78 24.5753C130.78 25.723 130.549 26.7322 130.087 27.6028C129.625 28.4685 128.961 29.1445 128.095 29.6309C127.23 30.1123 126.189 30.3531 124.973 30.3531ZM125.002 27.3766C125.343 27.3766 125.637 27.2623 125.885 27.0338C126.133 26.8052 126.325 26.4793 126.461 26.0562C126.598 25.6331 126.666 25.1297 126.666 24.5461C126.666 23.9576 126.598 23.4542 126.461 23.036C126.325 22.6128 126.133 22.287 125.885 22.0584C125.637 21.8298 125.343 21.7155 125.002 21.7155C124.642 21.7155 124.334 21.8298 124.076 22.0584C123.818 22.287 123.621 22.6128 123.485 23.036C123.349 23.4542 123.281 23.9576 123.281 24.5461C123.281 25.1297 123.349 25.6331 123.485 26.0562C123.621 26.4793 123.818 26.8052 124.076 27.0338C124.334 27.2623 124.642 27.3766 125.002 27.3766Z" fill="#1E293B"/>
<path fill-rule="evenodd" clip-rule="evenodd" d="M15.3539 10.9761C14.2911 11.7193 13.33 12.598 12.4956 13.5871C15.9051 13.2706 20.2367 13.7874 25.2656 16.3019C30.6359 18.987 34.9602 19.0778 37.9698 18.4972C37.6967 17.6705 37.3528 16.8758 36.9457 16.1204C33.5005 16.4838 29.0839 16.0028 23.9367 13.4293C20.6682 11.795 17.787 11.1218 15.3539 10.9761ZM34.9332 13.256C32.2125 10.2162 28.2588 8.30322 23.8583 8.30322C22.566 8.30322 21.3121 8.46823 20.1167 8.7783C21.7357 9.22004 23.4555 9.8663 25.2656 10.7714C29.0341 12.6556 32.2877 13.2623 34.9332 13.256ZM38.6132 21.3994C34.9774 22.1173 29.9567 21.9699 23.9367 18.9599C18.3087 16.1459 13.8293 16.1813 10.8082 16.8527C10.6522 16.8873 10.5 16.9237 10.3514 16.9616C9.95585 17.8218 9.64012 18.7264 9.41358 19.6657C9.65554 19.6011 9.90556 19.5396 10.1635 19.4823C13.8286 18.6678 19.0071 18.7032 25.2656 21.8325C30.8937 24.6465 35.3731 24.6111 38.3943 23.9397C38.4977 23.9167 38.5998 23.893 38.7 23.8684C38.711 23.6342 38.7165 23.3985 38.7165 23.1615C38.7165 22.5653 38.6815 21.9773 38.6132 21.3994ZM38.2149 27.0041C34.6144 27.6335 29.7399 27.3919 23.9367 24.4904C18.3087 21.6764 13.8293 21.7118 10.8082 22.3832C10.1376 22.5322 9.53433 22.7137 9.00218 22.9053C9.00073 22.9905 9 23.0759 9 23.1615C9 31.3675 15.6523 38.0198 23.8583 38.0198C30.7355 38.0198 36.5214 33.3475 38.2149 27.0041Z" fill="#7F57F1"/>
</svg>
